<svg width="29" height="29" viewBox="0 0 29 29" fill="none" xmlns="http://www.w3.org/2000/svg">
<path d="M20.3386 5.06999L3.43041 5.0688C2.74028 5.06875 2.17234 4.83148 1.7266 4.35698C1.28085 3.88249 1.05796 3.30018 1.05791 2.61004C1.08662 1.94867 1.32381 1.38077 1.76949 0.906334C2.21516 0.431902 2.78307 0.194711 3.4732 0.194759L26.2475 0.196358C26.5926 0.196382 26.9017 0.261104 27.1749 0.390522C27.4481 0.519942 27.6997 0.69968 27.9297 0.929739C28.1598 1.1598 28.3395 1.41142 28.469 1.68461C28.5984 1.95779 28.6631 2.26692 28.6631 2.61198L28.6647 25.3863C28.6648 26.0189 28.4276 26.5724 27.9531 27.0469C27.4787 27.5213 26.9108 27.7729 26.2494 27.8016C25.5593 27.8015 24.977 27.5642 24.5025 27.0897C24.028 26.6153 23.7907 26.0329 23.7907 25.3428L23.7895 8.52088L4.51033 27.8C4.02152 28.2889 3.44643 28.5332 2.78506 28.5332C2.12368 28.5331 1.54856 28.2887 1.05968 27.7998C0.570803 27.3109 0.326342 26.7358 0.326296 26.0744C0.326249 25.413 0.570629 24.838 1.05944 24.3491L20.3386 5.06999Z" fill="white"/>
</svg>
