<svg width="23" height="25" viewBox="0 0 23 25" fill="none" xmlns="http://www.w3.org/2000/svg">
<path d="M5.27062 5.36131L2.17829 6.67392L0.558138 16.7383L8.9233 22.5642L12.0156 21.2516L3.65046 15.4257L5.27062 5.36131ZM11.1928 2.8475L14.2851 1.53489L22.6503 7.36075L21.0301 17.4251L17.9378 18.7377L19.5579 8.67337L11.1928 2.8475ZM8.61951 0.654232L9.81936 0.501716C10.0087 0.477829 10.1997 0.638012 10.2488 0.858484L15.1301 23.6052C15.1764 23.8243 15.0619 24.0244 14.8735 24.0504L13.6755 24.2022C13.4862 24.2261 13.2951 24.0659 13.2461 23.8454L8.3647 1.09865C8.31839 0.879588 8.43292 0.67953 8.61951 0.654232Z" fill="white"/>
</svg>
