<svg width="28" height="28" viewBox="0 0 28 28" fill="none" xmlns="http://www.w3.org/2000/svg">
<path d="M21.8876 12.1654L13.0787 3.11707C12.7191 2.74775 12.5468 2.31687 12.5618 1.82444C12.5768 1.33202 12.764 0.901144 13.1236 0.531824C13.4831 0.193281 13.9026 0.0163155 14.382 0.000926971C14.8614 -0.0144615 15.2809 0.162504 15.6404 0.531824L27.5056 12.7194C27.6854 12.904 27.8127 13.1041 27.8876 13.3195C27.9625 13.535 28 13.7658 28 14.012C28 14.2582 27.9625 14.489 27.8876 14.7045C27.8127 14.9199 27.6854 15.12 27.5056 15.3046L15.6404 27.4922C15.3109 27.8307 14.8989 28 14.4045 28C13.9101 28 13.4831 27.8307 13.1236 27.4922C12.764 27.1229 12.5843 26.6843 12.5843 26.1765C12.5843 25.6687 12.764 25.2301 13.1236 24.8608L21.8876 15.8586L1.79775 15.8586C1.28839 15.8586 0.861422 15.6816 0.516851 15.3277C0.172281 14.9738 -1.90735e-06 14.5352 -1.90735e-06 14.012C-1.90735e-06 13.4888 0.172281 13.0502 0.516851 12.6963C0.861422 12.3424 1.28839 12.1654 1.79775 12.1654L21.8876 12.1654Z" fill="#2B2B2B"/>
</svg>
