<svg width="31" height="33" viewBox="0 0 31 33" fill="none" xmlns="http://www.w3.org/2000/svg">
<path d="M21.6287 5.85401L4.10762 5.74949C3.39247 5.74523 2.80499 5.47553 2.34517 4.9404C1.88534 4.40528 1.65692 3.75053 1.6599 2.97618C1.69255 2.23426 1.94083 1.59849 2.40474 1.06887C2.86865 0.53926 3.45818 0.276583 4.17333 0.280848L27.7732 0.421629C28.1308 0.423761 28.4508 0.498269 28.7334 0.645151C29.0159 0.792031 29.2758 0.995243 29.5132 1.25478C29.7506 1.51433 29.9358 1.79776 30.0687 2.10507C30.2016 2.41239 30.2673 2.75964 30.2658 3.14682L30.1676 28.7007C30.1649 29.4105 29.9167 30.0301 29.423 30.5596C28.9293 31.089 28.3397 31.3678 27.6542 31.396C26.9391 31.3917 26.3367 31.1219 25.8471 30.5866C25.3574 30.0513 25.1141 29.3965 25.1171 28.6221L25.1896 9.74714L5.12704 31.2616C4.61837 31.8071 4.02136 32.0778 3.33601 32.0737C2.65066 32.0696 2.05575 31.7918 1.5513 31.2403C1.04684 30.6888 0.796041 30.0419 0.798892 29.2999C0.801742 28.5578 1.0575 27.914 1.56618 27.3685L21.6287 5.85401Z" fill="#2B2B2B"/>
</svg>
