<svg width="24" height="24" viewBox="0 0 24 24" fill="none" xmlns="http://www.w3.org/2000/svg">
<path d="M8.7832 3.0344H5.42383L0 11.6657L5.42383 20.2969H8.7832L3.35938 11.6657L8.7832 3.0344ZM15.2168 3.0344H18.5762L24 11.6657L18.5762 20.2969H15.2168L20.6406 11.6657L15.2168 3.0344ZM13.7051 0.0100295L14.8691 0.338457C15.0527 0.390438 15.166 0.612541 15.125 0.834643L10.7305 23.6804C10.6875 23.9002 10.5039 24.0396 10.3203 23.99L9.1582 23.6615C8.97461 23.6096 8.86133 23.3875 8.90234 23.1654L13.2969 0.319555C13.3398 0.0998154 13.5234 -0.0395891 13.7051 0.0100295Z" fill="#C8C8C8"/>
</svg>
