<svg width="24" height="24" viewBox="0 0 24 24" fill="none" xmlns="http://www.w3.org/2000/svg">
<rect width="24" height="24" rx="12" fill="white"/>
<path d="M13.5286 9.54476L9.01894 9.48432C8.83488 9.48185 8.68256 9.41655 8.56198 9.28841C8.44141 9.16027 8.37989 9.00416 8.37742 8.8201C8.38273 8.6438 8.44397 8.49318 8.56115 8.36822C8.67833 8.24327 8.82896 8.18203 9.01302 8.1845L15.0873 8.26591C15.1793 8.26715 15.262 8.28551 15.3353 8.321C15.4086 8.35649 15.4764 8.40532 15.5385 8.4675C15.6007 8.52968 15.6496 8.59743 15.685 8.67075C15.7205 8.74407 15.7389 8.82675 15.7401 8.91878L15.8215 14.993C15.8238 15.1617 15.7625 15.3085 15.6377 15.4334C15.5128 15.5582 15.3622 15.6233 15.1859 15.6286C15.0019 15.6262 14.8457 15.5608 14.7175 15.4326C14.5892 15.3043 14.5239 15.1482 14.5214 14.9641L14.4613 10.4774L9.38781 15.5509C9.25918 15.6795 9.10666 15.7427 8.93026 15.7403C8.75387 15.7379 8.5996 15.6707 8.46747 15.5386C8.33534 15.4064 8.2681 15.2522 8.26573 15.0758C8.26337 14.8994 8.3265 14.7469 8.45514 14.6182L13.5286 9.54476Z" fill="#2B2B2B"/>
</svg>
