<svg width="25" height="24" viewBox="0 0 25 24" fill="none" xmlns="http://www.w3.org/2000/svg">
<rect x="0.5" width="24" height="24" rx="12" fill="#2B2B2B"/>
<path d="M14.0286 9.54476L9.51894 9.48432C9.33488 9.48185 9.18256 9.41655 9.06198 9.28841C8.94141 9.16027 8.87989 9.00416 8.87742 8.8201C8.88273 8.6438 8.94397 8.49318 9.06115 8.36822C9.17833 8.24327 9.32896 8.18203 9.51302 8.1845L15.5873 8.26591C15.6793 8.26715 15.762 8.28551 15.8353 8.321C15.9086 8.35649 15.9764 8.40532 16.0385 8.4675C16.1007 8.52968 16.1496 8.59743 16.185 8.67075C16.2205 8.74407 16.2389 8.82675 16.2401 8.91878L16.3215 14.993C16.3238 15.1617 16.2625 15.3085 16.1377 15.4334C16.0128 15.5582 15.8622 15.6233 15.6859 15.6286C15.5019 15.6262 15.3457 15.5608 15.2175 15.4326C15.0892 15.3043 15.0239 15.1482 15.0214 14.9641L14.9613 10.4774L9.88781 15.5509C9.75918 15.6795 9.60666 15.7427 9.43026 15.7403C9.25387 15.7379 9.0996 15.6707 8.96747 15.5386C8.83534 15.4064 8.7681 15.2522 8.76573 15.0758C8.76337 14.8994 8.8265 14.7469 8.95514 14.6182L14.0286 9.54476Z" fill="white"/>
</svg>
