<svg width="141" height="38" viewBox="0 0 141 38" fill="none" xmlns="http://www.w3.org/2000/svg">
<path d="M33.915 17.111C33.915 26.5611 26.3229 34.2219 16.9575 34.2219C7.59214 34.2219 0 26.5611 0 17.111C0 7.66083 7.59214 0 16.9575 0C26.3229 0 33.915 7.66083 33.915 17.111Z" fill="#E4572A"/>
<path d="M61.983 30.1153V21.5735C61.983 21.015 61.945 20.3963 61.869 19.7173C61.7931 19.0383 61.614 18.3867 61.3318 17.7625C61.0605 17.1274 60.6481 16.6072 60.0946 16.202C59.5519 15.7968 58.814 15.5942 57.8806 15.5942C57.3814 15.5942 56.8876 15.6764 56.3992 15.8406C55.9108 16.0049 55.4659 16.2896 55.0643 16.6948C54.6736 17.089 54.3589 17.6366 54.1201 18.3375C53.8814 19.0274 53.762 19.9144 53.762 20.9986L51.434 19.9965C51.434 18.4853 51.7216 17.1164 52.2968 15.8899C52.8829 14.6634 53.7403 13.6888 54.869 12.966C55.9977 12.2323 57.3868 11.8654 59.0364 11.8654C60.3388 11.8654 61.4132 12.0844 62.2597 12.5225C63.1062 12.9605 63.7791 13.519 64.2783 14.198C64.7776 14.8769 65.1466 15.5997 65.3853 16.3663C65.6241 17.1329 65.776 17.8611 65.8411 18.551C65.9171 19.23 65.9551 19.783 65.9551 20.2101V30.1153H61.983ZM49.7898 30.1153V6.46109H53.2899V18.9124H53.762V30.1153H49.7898Z" fill="#2B2B2B"/>
<path d="M70.5288 9.68069V6.05043H74.4521V9.68069H70.5288ZM70.5288 30.1153V12.3746H74.4521V30.1153H70.5288Z" fill="#2B2B2B"/>
<path d="M79.3285 30.1153V12.3746H82.796V16.6948L82.3727 16.1363C82.5898 15.545 82.8774 15.0084 83.2355 14.5265C83.6045 14.0337 84.044 13.6285 84.5541 13.311C84.9882 13.0153 85.4658 12.7853 85.9867 12.621C86.5185 12.4458 87.0611 12.3418 87.6146 12.3089C88.1681 12.2651 88.7053 12.287 89.2262 12.3746V16.0706C88.7053 15.9173 88.103 15.868 87.4193 15.9228C86.7464 15.9775 86.1386 16.1692 85.596 16.4977C85.0533 16.7934 84.6084 17.1712 84.2611 17.6311C83.9247 18.0911 83.675 18.6167 83.5122 19.2081C83.3494 19.7885 83.2681 20.4182 83.2681 21.0971V30.1153H79.3285Z" fill="#2B2B2B"/>
<path d="M100.008 30.6081C98.2281 30.6081 96.6653 30.2193 95.3195 29.4418C93.9738 28.6643 92.921 27.5856 92.1613 26.2058C91.4125 24.8259 91.0381 23.238 91.0381 21.4421C91.0381 19.5037 91.4071 17.8228 92.1451 16.3991C92.883 14.9646 93.9086 13.853 95.2218 13.0646C96.535 12.2761 98.0544 11.8818 99.78 11.8818C101.603 11.8818 103.15 12.3144 104.42 13.1795C105.7 14.0337 106.65 15.2438 107.268 16.8098C107.887 18.3758 108.12 20.221 107.968 22.3455H104.078V20.9C104.067 18.9726 103.73 17.5654 103.068 16.6784C102.406 15.7914 101.365 15.3478 99.9428 15.3478C98.3366 15.3478 97.1428 15.8516 96.3614 16.8591C95.58 17.8556 95.1893 19.3176 95.1893 21.245C95.1893 23.0409 95.58 24.4317 96.3614 25.4173C97.1428 26.4029 98.2823 26.8957 99.78 26.8957C100.746 26.8957 101.576 26.6821 102.271 26.255C102.976 25.817 103.519 25.1873 103.899 24.366L107.773 25.5487C107.1 27.1476 106.058 28.3905 104.648 29.2775C103.247 30.1646 101.701 30.6081 100.008 30.6081ZM93.9521 22.3455V19.3559H106.048V22.3455H93.9521Z" fill="#2B2B2B"/>
<path d="M121.906 30.1153C120.744 30.3343 119.605 30.4274 118.487 30.3945C117.38 30.3726 116.387 30.17 115.508 29.7867C114.629 29.3925 113.961 28.7738 113.505 27.9305C113.104 27.164 112.892 26.381 112.871 25.5816C112.849 24.7821 112.838 23.8787 112.838 22.8712V7.44668H116.745V22.6412C116.745 23.353 116.75 23.9772 116.761 24.5138C116.783 25.0504 116.897 25.4885 117.103 25.828C117.494 26.485 118.118 26.8519 118.975 26.9285C119.833 27.0052 120.809 26.9614 121.906 26.7971V30.1153ZM109.647 15.4792V12.3746H121.906V15.4792H109.647Z" fill="#2B2B2B"/>
<path d="M127.521 38L130.907 28.6205L130.972 31.3801L123.304 12.3746H127.391L132.828 26.4357H131.786L137.077 12.3746H141L131.2 38H127.521Z" fill="#2B2B2B"/>
</svg>
